<svg xmlns="http://www.w3.org/2000/svg" width="115" height="87" fill="none" viewBox="0 0 115 87">
  <path fill="#fff" d="m57.5 69 6.75 9L71 87H44l6.75-9 6.75-9ZM25 50H0v22h25V50Zm17.5-13C50.508 37 57 30.508 57 22.5S50.508 8 42.5 8 28 14.492 28 22.5 34.492 37 42.5 37Z"/>
  <path fill="#fff" d="M47 37c-4.351 0-8.605-1.085-12.222-3.118-3.618-2.033-6.438-4.922-8.103-8.302-1.666-3.38-2.101-7.1-1.252-10.69.849-3.588 2.944-6.884 6.02-9.471C34.52 2.83 38.44 1.069 42.709.355 46.977-.358 51.4.008 55.42 1.408s7.456 3.772 9.873 6.814C67.71 11.264 69 14.842 69 18.5c0 4.907-2.318 9.612-6.444 13.081C58.431 35.051 52.835 37 47 37ZM47 .37c-4.264 0-8.433 1.063-11.978 3.055-3.546 1.993-6.309 4.824-7.94 8.137-1.633 3.313-2.06 6.958-1.228 10.475.832 3.517 2.886 6.747 5.9 9.283 3.016 2.535 6.858 4.262 11.04 4.962 4.182.7 8.517.34 12.457-1.032 3.94-1.372 7.306-3.696 9.676-6.677 2.368-2.982 3.633-6.487 3.633-10.073 0-4.808-2.272-9.42-6.315-12.82C58.202 2.28 52.718.37 47 .37ZM33.11 33.685l-5.395 10.413.376.167 5.395-10.412-.377-.168Zm-1.243 24.27-.199.34L55.43 70.224l.198-.34-23.761-11.928Zm36.023 13.34.22.328L89.22 55.46l-.22-.327-21.11 16.162Z"/>
  <path fill="#fff" d="M30 72H0V44h30v28ZM.411 71.616h29.178V44.384H.411v27.232ZM78 87H44l17-28 17 28Zm-33.22-.428h32.44L61 59.856 44.78 86.572ZM94.5 59c9.113 0 16.5-7.387 16.5-16.5S103.613 26 94.5 26 78 33.387 78 42.5 85.387 59 94.5 59Z"/>
  <path fill="#fff" d="M100 55a15 15 0 1 1 15-15 15.015 15.015 0 0 1-15 15Zm0-29.552A14.552 14.552 0 1 0 114.552 40 14.568 14.568 0 0 0 100 25.448Z"/>
</svg>
