<svg xmlns="http://www.w3.org/2000/svg" width="110" height="81" fill="none" viewBox="0 0 110 81">
  <path fill="#fff" d="M103 45v33H20.125C10.682 78 3 70.598 3 61.5 3 52.402 10.682 45 20.125 45H103Z"/>
  <path fill="#fff" stroke="#fff" stroke-width="2" d="M106.701 80a2.33 2.33 0 0 0 1.609-.64c.436-.417.69-.991.69-1.6v-.001a2.21 2.21 0 0 0-.69-1.6 2.33 2.33 0 0 0-1.609-.64H19.797c-3.78 0-7.397-1.436-10.057-3.976C7.082 69.003 5.598 65.57 5.598 62c0-3.57 1.484-7.004 4.142-9.543 2.66-2.54 6.277-3.975 10.057-3.975H106.7a2.33 2.33 0 0 0 1.609-.64c.436-.417.69-.992.69-1.601a2.21 2.21 0 0 0-.69-1.6A2.33 2.33 0 0 0 106.7 44H19.797c-4.971 0-9.747 1.886-13.275 5.256C2.992 52.628 1 57.211 1 62c0 4.79 1.992 9.372 5.522 12.744C10.05 78.114 14.826 80 19.797 80H106.7ZM108 77.76c0 .328-.137.644-.381.876L19.797 79c-4.72 0-9.247-1.791-12.585-4.98C3.876 70.834 2 66.51 2 62c0-4.509 1.875-8.833 5.213-12.02C10.55 46.79 15.076 45 19.797 45H106.7c.345 0 .675.13.919.363.243.233.38.549.38.878 0 .329-.137.645-.38.877a1.332 1.332 0 0 1-.919.364H19.797c-4.031 0-7.897 1.53-10.747 4.252C6.2 54.457 4.598 58.15 4.598 62c0 3.85 1.601 7.543 4.452 10.266 2.85 2.723 6.716 4.252 10.747 4.252H106.7c.344 0 .675.131.918.364.244.233.381.548.381.877Z"/>
  <path stroke="#fff" stroke-width="2" d="M37 28c0 3.094-3.333 6-8 6s-8-2.906-8-6 3.333-6 8-6 8 2.906 8 6Z"/>
  <path stroke="#fff" stroke-linecap="round" d="M36.739 13c.46-.155.791-.436.791-1.302 0-.553-.74-1.283-.96-1.51-.617-.636-.77-2.74-.277-3.646.432-.797.995-1.39 1.492-2.037.382-.498.885-.897 1.215-1.505m5.813 10c.047-.296.147-.639.151-.938.01-.57.08-1.257-.008-1.817-.079-.5-.299-1.021-.505-1.453a3.216 3.216 0 0 0-.434-.667c-.12-.15-.207-.232-.274-.432-.114-.342-.406-.756-.635-.985-.339-.337-.522-.811-.712-1.28-.276-.683-.535-1.544-.312-2.308.14-.48.44-.877.7-1.266.188-.283.38-.597.589-.854"/>
  <path fill="#fff" d="M28 14h24v29H28z"/>
</svg>
