<svg xmlns="http://www.w3.org/2000/svg" width="243" height="123" fill="none" viewBox="0 0 243 123">
  <rect width="243" height="90" fill="#FBE7CA" rx="10"/>
  <path fill="#FBE7CA" d="M217.147 121.123 170.076 84.33l50.884-4.291L222 121l-4.853.123Z"/>
  <path fill="#E8B973" d="M44 46a9 9 0 1 0 0-18 9 9 0 0 0 0 18Zm144.018 22H39.982a4.955 4.955 0 0 1-3.523-1.462A5.003 5.003 0 0 1 35 63a5.022 5.022 0 0 1 1.46-3.538A4.975 4.975 0 0 1 39.981 58h148.036a4.953 4.953 0 0 1 3.522 1.462 5.009 5.009 0 0 1 1.081 5.453 5.007 5.007 0 0 1-2.697 2.706 4.948 4.948 0 0 1-1.906.379Z"/>
</svg>
