<svg xmlns="http://www.w3.org/2000/svg" width="243" height="123" fill="none" viewBox="0 0 243 123">
  <rect width="243" height="90" fill="#C6A6FA" rx="10" transform="matrix(-1 0 0 1 243 0)"/>
  <path fill="#C6A6FA" d="m25.853 121.123 47.07-36.793-50.883-4.291L21 121l4.853.123Z"/>
  <path fill="#803DED" d="M44 33c-5.523 0-10-4.03-10-9s4.477-9 10-9 10 4.03 10 9-4.477 9-10 9Zm-5.806 17h124.612c.551 0 1.096-.128 1.605-.379.509-.25.971-.619 1.36-1.083.39-.465.699-1.016.91-1.623.21-.607.319-1.258.319-1.915s-.109-1.308-.319-1.915a5.15 5.15 0 0 0-.91-1.623 4.214 4.214 0 0 0-1.36-1.083 3.608 3.608 0 0 0-1.605-.379H38.194a3.62 3.62 0 0 0-1.605.379c-.509.25-.97.619-1.36 1.083a5.154 5.154 0 0 0-.91 1.623A5.851 5.851 0 0 0 34 45c0 .657.108 1.308.32 1.915.21.607.52 1.158.909 1.623.39.464.851.832 1.36 1.083.509.251 1.054.38 1.605.379Zm1.576 17h171.46c.757 0 1.507-.128 2.207-.379.7-.25 1.337-.619 1.873-1.083a5.03 5.03 0 0 0 1.251-1.623c.29-.607.439-1.258.439-1.915s-.149-1.308-.439-1.915a5.03 5.03 0 0 0-1.251-1.623 5.898 5.898 0 0 0-1.873-1.083c-.7-.251-1.45-.38-2.207-.379H39.77c-.757 0-1.507.128-2.207.379-.7.25-1.337.619-1.873 1.083a5.019 5.019 0 0 0-1.25 1.623A4.431 4.431 0 0 0 34 62c0 .657.15 1.308.44 1.915.29.607.715 1.158 1.25 1.623a5.89 5.89 0 0 0 1.873 1.083c.7.251 1.45.38 2.207.379Z"/>
</svg>
