<svg xmlns="http://www.w3.org/2000/svg" width="77" height="77" fill="none" viewBox="0 0 77 77">
  <path  fill="#FFFFFF" d="m30.078 56.547-7.404-2.468c-1.096-.366-1.096-1.918 0-2.283l7.404-2.468 2.468-7.404c.366-1.096 1.918-1.096 2.283 0l2.468 7.404 7.404 2.468c1.096.366 1.096 1.918 0 2.283l-7.404 2.468-1.203 6.016h31.281l-12.99-30.32a9.572 9.572 0 0 1-.274-6.842L62.563 0 34.349 16.137c-3.549 2.03-6.512 5.128-8.03 8.888L9.624 62.563H31.28l-1.203-6.016Zm4.692-30.62 3.73-1.864 1.868-3.736a.601.601 0 0 1 1.076 0l1.868 3.735 3.736 1.868a.601.601 0 0 1 0 1.076l-3.736 1.869-1.867 3.736a.601.601 0 0 1-1.077 0L38.5 28.875l-3.73-1.865a.602.602 0 0 1 0-1.083Zm39.824 41.448H2.406A2.41 2.41 0 0 0 0 69.781 7.22 7.22 0 0 0 7.219 77H69.78A7.219 7.219 0 0 0 77 69.781a2.413 2.413 0 0 0-2.406-2.406Z"/>
</svg>
