<svg xmlns="http://www.w3.org/2000/svg" width="67" height="67" fill="none" viewBox="0 0 67 67">
  <path class="svg-image" fill="#FFFFFF" d="M66.882 48.038c0 5.782-5.624 10.47-12.445 10.47-6.82 0-12.444-4.688-12.444-10.352 0-5.781 5.624-10.35 12.444-10.35 1.477 0 2.873.25 4.19.64V19.38l-33.502 9.933v27.231C25.007 62.315 19.498 67 12.445 67 5.39 67 0 62.315 0 56.531c0-5.781 5.624-10.35 12.445-10.35 1.476 0 2.872.25 4.187.64V16.554c0-1.697 1.317-3.485 2.933-3.994L61.322.195C61.779.087 62.459 0 62.812 0A4.192 4.192 0 0 1 67 4.186l-.118 43.853Z"/>
</svg>
