<svg xmlns="http://www.w3.org/2000/svg" width="86" height="71" fill="none" viewBox="0 0 86 71">
  <path class="svg-image" fill="#FFFFFF" d="M17.2 10.368h51.6v39.863h8.6V7.877c0-4.107-2.903-7.475-6.45-7.475h-55.9C11.507.402 8.6 3.77 8.6 7.877V50.23h8.6V10.368Zm66.65 44.846H2.15C.974 55.214 0 56.35 0 57.704v2.492c0 5.49 3.863 9.966 8.6 9.966h68.8c4.737 0 8.6-4.477 8.6-9.966v-2.491c0-1.355-.968-2.491-2.15-2.491Zm-34.682-15.23c.524.608 1.21.904 1.895.904s1.374-.302 1.9-.91l6.45-7.474c1.05-1.217 1.05-3.192 0-4.409l-6.45-7.474c-1.05-1.216-2.751-1.216-3.8 0-1.05 1.217-1.05 3.192 0 4.408l4.55 5.27-4.55 5.27c-1.057 1.224-1.057 3.201.005 4.416ZM36.832 20.63c-1.05-1.216-2.75-1.216-3.8 0l-6.45 7.475c-1.05 1.216-1.05 3.192 0 4.408l6.45 7.474c.535.606 1.22.902 1.906.902.685 0 1.374-.302 1.9-.91 1.05-1.217 1.05-3.192 0-4.408L32.29 30.3l4.55-5.27c.933-1.208.933-3.186-.008-4.4Z"/>
</svg>
